<?xml version="1.0" encoding="UTF-8"?>
 <!DOCTYPE svg PUBLIC "-//W3C//DTD SVG 1.1//EN"
   "http://www.w3.org/Graphics/SVG/1.1/DTD/svg11.dtd">
 <svg xmlns="http://www.w3.org/2000/svg" version="1.1"
   xmlns:xlink="http://www.w3.org/1999/xlink" width="475.21866" height="114.45032">
  <defs
     id="defs8309">
    <linearGradient id="linearGradient11301"> <stop id="stop11303" style="stop-color:#ffe052;stop-opacity:1" offset="0" /><stop id="stop11305" style="stop-color:#ffc331;stop-opacity:1" offset="1" /></linearGradient>
    <linearGradient id="linearGradient9515"><stop id="stop9517" style="stop-color:#387eb8;stop-opacity:1" offset="0" /><stop id="stop9519" style="stop-color:#366994;stop-opacity:1" offset="1" /></linearGradient>
    <linearGradient x1="55.549179" y1="77.070274" x2="110.14919" y2="131.85291" id="linearGradient9521" xlink:href="#linearGradient9515" gradientUnits="userSpaceOnUse" />
    <linearGradient x1="89.136749" y1="111.92053" x2="147.77737" y2="168.1012" id="linearGradient11307" xlink:href="#linearGradient11301" gradientUnits="userSpaceOnUse" />
    <linearGradient x1="89.136749" y1="111.92053" x2="147.77737" y2="168.1012" id="linearGradient2832" xlink:href="#linearGradient11301" gradientUnits="userSpaceOnUse" />
    <linearGradient x1="55.549179" y1="77.070274" x2="110.14919" y2="131.85291" id="linearGradient2835" xlink:href="#linearGradient9515" gradientUnits="userSpaceOnUse" />
    <linearGradient x1="89.136749" y1="111.92053" x2="147.77737" y2="168.1012" id="linearGradient2845" xlink:href="#linearGradient11301" gradientUnits="userSpaceOnUse" gradientTransform="translate(-44.9375,-63.612181)" />
    <linearGradient x1="55.549179" y1="77.070274" x2="110.14919" y2="131.85291" id="linearGradient2848" xlink:href="#linearGradient9515" gradientUnits="userSpaceOnUse" gradientTransform="translate(-44.9375,-63.612181)" />
  </defs>
  <path d="m 367.03125,30.356569 c -19.46429,0 -25.01787,19.98661 -24.125,27.84375 0,4.46428 1.07215,29.31194 25,29.125 22.67857,-0.17857 23.78895,-24.46732 23.75,-28.75 -0.039,-4.11084 -0.33929,-28.218749 -24.625,-28.21875 z m 0.34375,6.4375 c 2.2308,0 15,0.33483 15,21.40625 -10e-6,21.07142 -8.57143,23.21875 -15,23.21875 -6.42858,-10e-6 -14.8125,-3.37054 -14.8125,-23.90625 0,-20.53571 12.40313,-20.71875 14.8125,-20.71875 z" style="color:#000000;fill:#646464;fill-opacity:1;fill-rule:nonzero;stroke:none;stroke-width:1;marker:none;visibility:visible;display:inline;overflow:visible" />
  <path d="m 165.40625,30.544069 c -15,0 -23.5625,9.28125 -23.5625,9.28125 l 0,70.343751 9.28125,4.28125 0,-31.781251 c 0,0 6.44196,4.99999 17.15625,5 10.71428,0 20.71875,-11.04911 20.71875,-28.90625 0,-17.85714 -8.59376,-28.218751 -23.59375,-28.21875 z m -1.0625,6.0625 c 7.5,0 14.81249,3.38393 14.8125,22.3125 0,18.92857 -8.20535,21.78124 -14.8125,21.78125 -6.60714,0 -13.03125,-5.00001 -13.03125,-5 l -0.1875,-0.15625 0,-34.46875 c 0,0 5.71875,-4.46875 13.21875,-4.46875 z" style="color:#000000;fill:#646464;fill-opacity:1;fill-rule:nonzero;stroke:none;stroke-width:1;marker:none;visibility:visible;display:inline;overflow:visible" />
  <path d="m 235.41964,31.785714 9.10715,0 0,52.857145 c 0,0 1.07142,13.92857 -5.89286,21.071431 -6.96429,7.14285 -23.75,8.39285 -23.75,8.39285 l -1.25,-5.17856 c 0,0 22.32143,-1.60715 22.32143,-19.107151 l 0,-7.14286 c 0,0 -10.35715,4.46429 -19.28572,4.46429 -8.92857,0 -17.85714,-5.71429 -17.85714,-16.25 0,-10.53572 0,-37.321431 0,-37.321431 l 9.37798,-2.512821 0,38.048532 c 0,0 -0.62798,11.60715 12.40773,11.60715 13.03572,0 15.17858,-5 15.17858,-5 l -0.35715,-43.928575 z" style="color:#000000;fill:#646464;fill-opacity:1;fill-rule:nonzero;stroke:none;stroke-width:1;marker:none;visibility:visible;display:inline;overflow:visible" />
  <path d="m 260.41964,16.964285 0,0 8.92857,-2.857143 0,17.678572 10.35715,0 0,5.892855 -10.35715,0 0,35.35714 c 0,0 -1.25,8.75 10,8.75 l 0,5.35715 c 0,0 -18.75,0.17857 -18.75,-12.5 0,-12.67857 0,-37.14286 0,-37.14286 l -6.07142,0 0,-5.714285 5.89285,0 0,-14.821429 z" style="color:#000000;fill:#646464;fill-opacity:1;fill-rule:nonzero;stroke:none;stroke-width:1;marker:none;visibility:visible;display:inline;overflow:visible" />
  <path d="m 290.41964,2.5 8.75,-2.5 0,37.857139 c 0,0 9.28572,-6.428568 18.75,-6.428568 9.46429,0 16.25,8.392858 16.25,14.107138 0,5.71429 0,40.71429 0,40.71429 l -8.75,0 0,-36.42857 c 0,0 -0.89285,-12.5 -10.89285,-12.5 -10,0 -15.17857,6.96428 -15.17857,6.96428 l 0,42.14286 -9.10715,0 L 290.41964,2.5 z" style="color:#000000;fill:#646464;fill-opacity:1;fill-rule:nonzero;stroke:none;stroke-width:1;marker:none;visibility:visible;display:inline;overflow:visible" />
  <path d="m 400.59822,86.249999 8.92857,0 0,-45.53571 c 0,0 3.57143,-4.464289 12.67857,-4.464289 9.10714,0 12.67857,8.214289 12.67857,10.357139 0,2.14286 0,39.64286 0,39.64286 l 9.28571,0 0,-42.67857 c 0,0 -1.25,-13.035715 -18.39285,-13.214287 -17.14286,-0.178571 -25.35715,9.285717 -25.35715,9.285717 l 0.17858,46.60714 z" style="color:#000000;fill:#646464;fill-opacity:1;fill-rule:nonzero;stroke:none;stroke-width:1;marker:none;visibility:visible;display:inline;overflow:visible" />
  <path d="m 457.46866,24.559396 0,-10.101562 -3.77344,0 0,-1.351563 9.07813,0 0,1.351563 -3.78907,0 0,10.101562 -1.51562,0 z m 6.82031,0 0,-11.453125 2.28125,0 2.71094,8.109375 c 0.24999,0.755211 0.43228,1.320315 0.54687,1.695313 0.1302,-0.416665 0.33333,-1.028643 0.60938,-1.835938 l 2.74219,-7.96875 2.03906,0 0,11.453125 -1.46094,0 0,-9.585937 -3.32812,9.585937 -1.36719,0 -3.3125,-9.75 0,9.75 -1.46094,0 z" style="font-size:16px;font-style:normal;font-variant:normal;font-weight:normal;font-stretch:normal;text-align:start;line-height:125%;text-anchor:start;fill:#646464;fill-opacity:1;stroke:none;font-family:Arial" />
  <path d="m 54.8125,3.856569 c -28.031732,2e-6 -26.28125,12.15625 -26.28125,12.15625 l 0.03125,12.59375 26.75,0 0,3.78125 -37.375,0 c 0,0 -17.9375,-2.034276 -17.9375,26.25 -1.9999998e-6,28.28427 15.65625,27.28125 15.65625,27.28125 l 9.34375,0 0,-13.125 c 0,0 -0.503652,-15.65625 15.40625,-15.65625 15.9099,0 26.53125,0 26.53125,0 0,0 14.90625,0.24096 14.90625,-14.40625 0,-14.647206 0,-24.21875 0,-24.21875 0,-2e-6 2.26318,-14.65625 -27.03125,-14.65625 z m -14.75,8.46875 c 2.661429,-2e-6 4.8125,2.151071 4.8125,4.8125 2e-6,2.661429 -2.151071,4.8125 -4.8125,4.8125 -2.661429,2e-6 -4.8125,-2.151071 -4.8125,-4.8125 -2e-6,-2.661429 2.151071,-4.8125 4.8125,-4.8125 z" style="color:#000000;fill:url(#linearGradient2848);fill-opacity:1;fill-rule:nonzero;stroke:none;stroke-width:1;marker:none;visibility:visible;display:inline;overflow:visible" />
  <path d="m 55.6086,113.70267 c 28.03174,0 26.28125,-12.15625 26.28125,-12.15625 l -0.0312,-12.593751 -26.75,0 0,-3.78125 37.375,0 c 0,0 17.9375,2.03427 17.9375,-26.25001 1e-5,-28.284267 -15.65625,-27.281247 -15.65625,-27.281247 l -9.34375,0 0,13.124997 c 0,0 0.50366,15.65625 -15.40625,15.65625 -15.909902,0 -26.531252,0 -26.531252,0 0,0 -14.90625,-0.24096 -14.90625,14.40626 0,14.6472 0,24.21875 0,24.21875 0,0 -2.26318,14.656251 27.031252,14.656251 z m 14.75,-8.46875 c -2.66143,0 -4.8125,-2.15107 -4.8125,-4.8125 0,-2.661431 2.15107,-4.812501 4.8125,-4.812501 2.66143,0 4.8125,2.15107 4.8125,4.812501 1e-5,2.66143 -2.15107,4.8125 -4.8125,4.8125 z"    style="color:#000000;fill:url(#linearGradient2845);fill-opacity:1;fill-rule:nonzero;stroke:none;stroke-width:1;marker:none;visibility:visible;display:inline;overflow:visible" />
 </svg>
